<svg xmlns="http://www.w3.org/2000/svg"  viewBox="0 0 64 64" width="64px" height="64px"><linearGradient id="VfPvyV0-v5VnA-T_FZ6z5a" x1="32.042" x2="32.042" y1="35.756" y2="3.857" gradientTransform="matrix(1 0 0 -1 0 66)" gradientUnits="userSpaceOnUse"><stop offset="0" stop-color="#6dc7ff"/><stop offset="1" stop-color="#e6abff"/></linearGradient><polygon fill="url(#VfPvyV0-v5VnA-T_FZ6z5a)" points="10.223,20 32,35 53.862,20 53.862,45 32,59.721 10.223,45"/><linearGradient id="VfPvyV0-v5VnA-T_FZ6z5b" x1="32" x2="32" y1="60.119" y2="2.821" gradientTransform="matrix(1 0 0 -1 0 66)" gradientUnits="userSpaceOnUse"><stop offset="0" stop-color="#1a6dff"/><stop offset="1" stop-color="#c822ff"/></linearGradient><path fill="url(#VfPvyV0-v5VnA-T_FZ6z5b)" d="M54.513,19.248l-22-15c-0.309-0.211-0.717-0.211-1.025,0l-22,15	C9.238,19.417,9.09,19.699,9.09,20v25c0,0.301,0.148,0.583,0.397,0.752l22,15c0.154,0.105,0.334,0.158,0.513,0.158	s0.358-0.053,0.513-0.158l22-15c0.249-0.169,0.397-0.451,0.397-0.752V20C54.91,19.699,54.762,19.417,54.513,19.248z M21.91,41.722	l9.18,6.259v10.296l-9.183-6.261c0-0.006,0.003-0.01,0.003-0.016C21.91,52,21.91,41.722,21.91,41.722z M10.91,21.722l9.18,6.259	v10.297l-9.18-6.259V21.722z M21.001,13.602L30.384,20L21,26.398L11.616,20L21.001,13.602z M52.384,20L43,26.398L33.616,20	L43,13.602L52.384,20z M41.384,27.5L32,33.897L22.616,27.5L32,21.101L41.384,27.5z M21.91,29.222l9.18,6.259v10.297l-9.18-6.259	V29.222z M32.91,47.981l9.18-6.259V52c0,0.006,0.003,0.01,0.003,0.016l-9.183,6.261V47.981z M32.91,45.778V35.481l9.18-6.259v10.297	L32.91,45.778z M43.91,27.981l9.18-6.259v10.297l-9.18,6.259V27.981z M32,6.103l9.384,6.398L32,18.898L22.616,12.5L32,6.103z M10.91,34.222l9.18,6.259v10.296l-9.18-6.259V34.222z M43.91,50.777V40.481l9.18-6.259v10.296L43.91,50.777z"/></svg>